<?xml version="1.0" encoding="UTF-8" standalone="no"?>
<!-- Created with Inkscape (http://www.inkscape.org/) -->
<svg id="svg2" xmlns:rdf="http://www.w3.org/1999/02/22-rdf-syntax-ns#" xmlns="http://www.w3.org/2000/svg" xml:space="preserve" height="896.74" viewBox="0 0 896.73999 896.73877" width="896.74" version="1.1" xmlns:cc="http://creativecommons.org/ns#" xmlns:dc="http://purl.org/dc/elements/1.1/"><metadata id="metadata8"><rdf:RDF><cc:Work rdf:about=""><dc:format>image/svg+xml</dc:format><dc:type rdf:resource="http://purl.org/dc/dcmitype/StillImage"/><dc:title/></cc:Work></rdf:RDF></metadata><defs id="defs6"><clipPath id="clipPath16" clipPathUnits="userSpaceOnUse"><path id="path18" d="m0 960h960v-960h-960v960z"/></clipPath></defs><g id="g10" transform="matrix(1.25 0 0 -1.25 -164.28 1065.8)"><g id="g12"><g id="g14" clip-path="url(#clipPath16)"><g id="g20" transform="translate(848.81 493.92)"><path id="path22" d="m0 0c0 198.1-160.59 358.7-358.7 358.7-198.1 0-358.7-160.59-358.7-358.7 0-198.1 160.59-358.7 358.7-358.7s358.7 160.6 358.7 358.7" fill="#ffc107"/></g><g id="g24" transform="translate(490.12 282.7)"><path id="path26" d="m0 0c2.955 0 5.705 0.183 8.447 0.822 13.733 2.743 25.141 12.289 30.424 24.957 2.113 5.075 3.383 10.52 3.383 16.52h-84.507c0-23 19.013-42.299 42.253-42.299" fill="#fff"/></g><g id="g28" transform="translate(553,415)"><path id="path30" d="m0 0h-26v93.967c0 10.709-1.096 18.717-3.145 24.026-2.042 5.305-5.709 9.541-10.918 12.706-5.208 3.163-11.336 4.747-18.347 4.747-11.197 0-21.064-3.555-29.193-10.662-8.131-7.1-12.397-20.59-12.397-40.453v-84.327h-26v155h24v-22.329c11 17.038 27.724 25.559 49.242 25.559 9.35 0 17.881-1.679 25.719-5.039 7.838-3.358 13.674-7.765 17.567-13.217 3.895-5.454 6.538-11.929 8.097-19.426 0.977-4.87 1.38-13.39 1.38-25.561v-94.989zm74-5.585v116.2c0 64.86-45 119.16-105 133.52v14.365c0 17.537-14.463 31.69-32 31.69-17.536 0-32-14.153-32-31.69v-14.365c-60-14.365-105-68.662-105-133.52v-116.2l-42-42.254v-21.161h359v21.161l-43 42.254z" fill="#fff"/></g></g></g></g></svg>
